<mxfile host="app.diagrams.net" agent="Mozilla/5.0 (Macintosh; Intel Mac OS X 10_15_7) AppleWebKit/605.1.15 (KHTML, like Gecko) Version/18.1 Safari/605.1.15" version="24.7.17">
  <diagram id="C5RBs43oDa-KdzZeNtuy" name="Page-1">
    <mxGraphModel dx="1185" dy="678" grid="1" gridSize="10" guides="1" tooltips="1" connect="1" arrows="1" fold="1" page="1" pageScale="1" pageWidth="827" pageHeight="1169" math="1" shadow="0">
      <root>
        <mxCell id="WIyWlLk6GJQsqaUBKTNV-0" />
        <mxCell id="WIyWlLk6GJQsqaUBKTNV-1" parent="WIyWlLk6GJQsqaUBKTNV-0" />
        <mxCell id="SwoTOEqU8fQwK2jxygsd-35" style="edgeStyle=orthogonalEdgeStyle;rounded=0;orthogonalLoop=1;jettySize=auto;html=1;exitX=0;exitY=0.5;exitDx=0;exitDy=0;entryX=0;entryY=1;entryDx=0;entryDy=0;" edge="1" parent="WIyWlLk6GJQsqaUBKTNV-1" source="WIyWlLk6GJQsqaUBKTNV-3" target="SwoTOEqU8fQwK2jxygsd-3">
          <mxGeometry relative="1" as="geometry">
            <Array as="points">
              <mxPoint x="180" y="400" />
              <mxPoint x="180" y="250" />
            </Array>
          </mxGeometry>
        </mxCell>
        <mxCell id="WIyWlLk6GJQsqaUBKTNV-3" value="&lt;div&gt;&lt;br&gt;&lt;/div&gt;&lt;div&gt;&lt;br&gt;&lt;/div&gt;&lt;div&gt;&lt;br&gt;&lt;/div&gt;&lt;div&gt;&lt;br&gt;&lt;/div&gt;&lt;div&gt;&lt;br&gt;&lt;/div&gt;Colour \(C\)" style="rounded=1;whiteSpace=wrap;html=1;fontSize=12;glass=0;strokeWidth=1;shadow=0;dashed=1;" parent="WIyWlLk6GJQsqaUBKTNV-1" vertex="1">
          <mxGeometry x="200" y="330" width="400" height="140" as="geometry" />
        </mxCell>
        <mxCell id="SwoTOEqU8fQwK2jxygsd-36" style="edgeStyle=orthogonalEdgeStyle;rounded=0;orthogonalLoop=1;jettySize=auto;html=1;exitX=0;exitY=0.5;exitDx=0;exitDy=0;entryX=0;entryY=1;entryDx=0;entryDy=0;shadow=0;dashed=1;dashPattern=1 4;" edge="1" parent="WIyWlLk6GJQsqaUBKTNV-1" source="SwoTOEqU8fQwK2jxygsd-0" target="SwoTOEqU8fQwK2jxygsd-3">
          <mxGeometry relative="1" as="geometry">
            <Array as="points">
              <mxPoint x="230" y="390" />
              <mxPoint x="230" y="440" />
              <mxPoint x="180" y="440" />
              <mxPoint x="180" y="250" />
            </Array>
          </mxGeometry>
        </mxCell>
        <mxCell id="SwoTOEqU8fQwK2jxygsd-42" value="$$f^-1(C) = f_H^-1(H)$$&lt;div&gt;when \(H \neq 0\)&lt;/div&gt;" style="edgeLabel;html=1;align=center;verticalAlign=middle;resizable=0;points=[];" vertex="1" connectable="0" parent="SwoTOEqU8fQwK2jxygsd-36">
          <mxGeometry x="-0.6109" y="2" relative="1" as="geometry">
            <mxPoint x="86" y="-2" as="offset" />
          </mxGeometry>
        </mxCell>
        <mxCell id="SwoTOEqU8fQwK2jxygsd-0" value="Hue \(H\)" style="rounded=1;whiteSpace=wrap;html=1;fontSize=12;glass=0;strokeWidth=1;shadow=0;" vertex="1" parent="WIyWlLk6GJQsqaUBKTNV-1">
          <mxGeometry x="240" y="370" width="80" height="40" as="geometry" />
        </mxCell>
        <mxCell id="SwoTOEqU8fQwK2jxygsd-1" value="Saturation \(S\)" style="rounded=1;whiteSpace=wrap;html=1;fontSize=12;glass=0;strokeWidth=1;shadow=0;" vertex="1" parent="WIyWlLk6GJQsqaUBKTNV-1">
          <mxGeometry x="360" y="370" width="80" height="40" as="geometry" />
        </mxCell>
        <mxCell id="SwoTOEqU8fQwK2jxygsd-38" style="edgeStyle=orthogonalEdgeStyle;rounded=0;orthogonalLoop=1;jettySize=auto;html=1;exitX=1;exitY=0.5;exitDx=0;exitDy=0;entryX=0;entryY=1;entryDx=0;entryDy=0;dashed=1;dashPattern=1 4;" edge="1" parent="WIyWlLk6GJQsqaUBKTNV-1" source="SwoTOEqU8fQwK2jxygsd-2" target="SwoTOEqU8fQwK2jxygsd-3">
          <mxGeometry relative="1" as="geometry">
            <Array as="points">
              <mxPoint x="580" y="390" />
              <mxPoint x="580" y="490" />
              <mxPoint x="180" y="490" />
              <mxPoint x="180" y="250" />
            </Array>
          </mxGeometry>
        </mxCell>
        <mxCell id="SwoTOEqU8fQwK2jxygsd-39" value="$$f^{-1}$$" style="edgeLabel;html=1;align=center;verticalAlign=middle;resizable=0;points=[];" vertex="1" connectable="0" parent="SwoTOEqU8fQwK2jxygsd-38">
          <mxGeometry x="0.5378" y="1" relative="1" as="geometry">
            <mxPoint x="1" as="offset" />
          </mxGeometry>
        </mxCell>
        <mxCell id="SwoTOEqU8fQwK2jxygsd-41" value="$$f^-1(C) = f_V^-1(V)$$&lt;div&gt;when \(H = 0\)&lt;/div&gt;" style="edgeLabel;html=1;align=center;verticalAlign=middle;resizable=0;points=[];" vertex="1" connectable="0" parent="SwoTOEqU8fQwK2jxygsd-38">
          <mxGeometry x="-0.2777" y="2" relative="1" as="geometry">
            <mxPoint x="-255" y="-32" as="offset" />
          </mxGeometry>
        </mxCell>
        <mxCell id="SwoTOEqU8fQwK2jxygsd-2" value="Value \(V\)" style="rounded=1;whiteSpace=wrap;html=1;fontSize=12;glass=0;strokeWidth=1;shadow=0;" vertex="1" parent="WIyWlLk6GJQsqaUBKTNV-1">
          <mxGeometry x="480" y="370" width="80" height="40" as="geometry" />
        </mxCell>
        <mxCell id="SwoTOEqU8fQwK2jxygsd-11" style="edgeStyle=orthogonalEdgeStyle;rounded=0;orthogonalLoop=1;jettySize=auto;html=1;exitX=0;exitY=0.75;exitDx=0;exitDy=0;entryX=0.25;entryY=1;entryDx=0;entryDy=0;" edge="1" parent="WIyWlLk6GJQsqaUBKTNV-1" source="SwoTOEqU8fQwK2jxygsd-3" target="SwoTOEqU8fQwK2jxygsd-4">
          <mxGeometry relative="1" as="geometry" />
        </mxCell>
        <mxCell id="SwoTOEqU8fQwK2jxygsd-12" value="$$I = 10h - 3$$" style="edgeLabel;html=1;align=center;verticalAlign=middle;resizable=0;points=[];" vertex="1" connectable="0" parent="SwoTOEqU8fQwK2jxygsd-11">
          <mxGeometry x="-0.1113" y="2" relative="1" as="geometry">
            <mxPoint x="-69" y="-122" as="offset" />
          </mxGeometry>
        </mxCell>
        <mxCell id="SwoTOEqU8fQwK2jxygsd-15" style="edgeStyle=orthogonalEdgeStyle;rounded=0;orthogonalLoop=1;jettySize=auto;html=1;exitX=0.873;exitY=-0.007;exitDx=0;exitDy=0;entryX=0.75;entryY=1;entryDx=0;entryDy=0;exitPerimeter=0;" edge="1" parent="WIyWlLk6GJQsqaUBKTNV-1" source="SwoTOEqU8fQwK2jxygsd-3" target="SwoTOEqU8fQwK2jxygsd-6">
          <mxGeometry relative="1" as="geometry">
            <Array as="points">
              <mxPoint x="460" y="180" />
              <mxPoint x="500" y="180" />
            </Array>
          </mxGeometry>
        </mxCell>
        <mxCell id="SwoTOEqU8fQwK2jxygsd-31" value="&lt;span style=&quot;caret-color: rgba(0, 0, 0, 0); color: rgba(0, 0, 0, 0); font-family: monospace; font-size: 0px; text-align: start; background-color: rgb(251, 251, 251);&quot;&gt;%3CmxGraphModel%3E%3Croot%3E%3CmxCell%20id%3D%220%22%2F%3E%3CmxCell%20id%3D%221%22%20parent%3D%220%22%2F%3E%3CmxCell%20id%3D%222%22%20value%3D%22%24%24a%3D10%5E%7B5h-2%7D%24%24%22%20style%3D%22edgeLabel%3Bhtml%3D1%3Balign%3Dcenter%3BverticalAlign%3Dmiddle%3Bresizable%3D0%3Bpoints%3D%5B%5D%3B%22%20vertex%3D%221%22%20connectable%3D%220%22%20parent%3D%221%22%3E%3CmxGeometry%20x%3D%22220%22%20y%3D%22160.27428800091457%22%20as%3D%22geometry%22%2F%3E%3C%2FmxCell%3E%3C%2Froot%3E%3C%2FmxGraphModel%v&lt;/span&gt;" style="edgeLabel;html=1;align=center;verticalAlign=middle;resizable=0;points=[];" vertex="1" connectable="0" parent="SwoTOEqU8fQwK2jxygsd-15">
          <mxGeometry x="0.0622" y="-1" relative="1" as="geometry">
            <mxPoint as="offset" />
          </mxGeometry>
        </mxCell>
        <mxCell id="SwoTOEqU8fQwK2jxygsd-32" value="$$v = 10^{5h-3}$$" style="edgeLabel;html=1;align=center;verticalAlign=middle;resizable=0;points=[];" vertex="1" connectable="0" parent="SwoTOEqU8fQwK2jxygsd-15">
          <mxGeometry x="-0.005" y="2" relative="1" as="geometry">
            <mxPoint x="42" as="offset" />
          </mxGeometry>
        </mxCell>
        <mxCell id="SwoTOEqU8fQwK2jxygsd-16" style="edgeStyle=orthogonalEdgeStyle;rounded=0;orthogonalLoop=1;jettySize=auto;html=1;exitX=0.134;exitY=-0.036;exitDx=0;exitDy=0;entryX=0.25;entryY=1;entryDx=0;entryDy=0;exitPerimeter=0;" edge="1" parent="WIyWlLk6GJQsqaUBKTNV-1" source="SwoTOEqU8fQwK2jxygsd-3" target="SwoTOEqU8fQwK2jxygsd-5">
          <mxGeometry relative="1" as="geometry">
            <Array as="points">
              <mxPoint x="341" y="180" />
              <mxPoint x="300" y="180" />
            </Array>
          </mxGeometry>
        </mxCell>
        <mxCell id="SwoTOEqU8fQwK2jxygsd-28" value="$$a=10^{5h-2}$$" style="edgeLabel;html=1;align=center;verticalAlign=middle;resizable=0;points=[];" vertex="1" connectable="0" parent="SwoTOEqU8fQwK2jxygsd-16">
          <mxGeometry x="0.2904" y="3" relative="1" as="geometry">
            <mxPoint x="-37" y="30" as="offset" />
          </mxGeometry>
        </mxCell>
        <mxCell id="SwoTOEqU8fQwK2jxygsd-18" style="edgeStyle=orthogonalEdgeStyle;rounded=0;orthogonalLoop=1;jettySize=auto;html=1;exitX=1;exitY=0.75;exitDx=0;exitDy=0;entryX=0.75;entryY=1;entryDx=0;entryDy=0;" edge="1" parent="WIyWlLk6GJQsqaUBKTNV-1" source="SwoTOEqU8fQwK2jxygsd-3" target="SwoTOEqU8fQwK2jxygsd-7">
          <mxGeometry relative="1" as="geometry" />
        </mxCell>
        <mxCell id="SwoTOEqU8fQwK2jxygsd-34" value="$$x = 10^{5h - 4}$$" style="edgeLabel;html=1;align=center;verticalAlign=middle;resizable=0;points=[];" vertex="1" connectable="0" parent="SwoTOEqU8fQwK2jxygsd-18">
          <mxGeometry x="0.7462" relative="1" as="geometry">
            <mxPoint x="40" y="-3" as="offset" />
          </mxGeometry>
        </mxCell>
        <mxCell id="SwoTOEqU8fQwK2jxygsd-20" style="edgeStyle=orthogonalEdgeStyle;rounded=0;orthogonalLoop=1;jettySize=auto;html=1;exitX=0.5;exitY=1;exitDx=0;exitDy=0;entryX=0.5;entryY=0;entryDx=0;entryDy=0;" edge="1" parent="WIyWlLk6GJQsqaUBKTNV-1" source="SwoTOEqU8fQwK2jxygsd-3" target="SwoTOEqU8fQwK2jxygsd-0">
          <mxGeometry relative="1" as="geometry">
            <Array as="points">
              <mxPoint x="400" y="290" />
              <mxPoint x="280" y="290" />
            </Array>
          </mxGeometry>
        </mxCell>
        <mxCell id="SwoTOEqU8fQwK2jxygsd-25" value="\(f_H\)&lt;div&gt;Piecewise&lt;/div&gt;&lt;div&gt;Linear &amp;amp; Poly&lt;/div&gt;" style="edgeLabel;html=1;align=center;verticalAlign=middle;resizable=0;points=[];" vertex="1" connectable="0" parent="SwoTOEqU8fQwK2jxygsd-20">
          <mxGeometry x="-0.2071" relative="1" as="geometry">
            <mxPoint x="-25" as="offset" />
          </mxGeometry>
        </mxCell>
        <mxCell id="SwoTOEqU8fQwK2jxygsd-21" style="edgeStyle=orthogonalEdgeStyle;rounded=0;orthogonalLoop=1;jettySize=auto;html=1;exitX=0.5;exitY=1;exitDx=0;exitDy=0;entryX=0.5;entryY=0;entryDx=0;entryDy=0;" edge="1" parent="WIyWlLk6GJQsqaUBKTNV-1" source="SwoTOEqU8fQwK2jxygsd-3" target="SwoTOEqU8fQwK2jxygsd-2">
          <mxGeometry relative="1" as="geometry">
            <Array as="points">
              <mxPoint x="400" y="290" />
              <mxPoint x="520" y="290" />
            </Array>
          </mxGeometry>
        </mxCell>
        <mxCell id="SwoTOEqU8fQwK2jxygsd-26" value="\(f_V\)&lt;div&gt;Piecewise&lt;/div&gt;&lt;div&gt;Linear&lt;/div&gt;" style="edgeLabel;html=1;align=center;verticalAlign=middle;resizable=0;points=[];" vertex="1" connectable="0" parent="SwoTOEqU8fQwK2jxygsd-21">
          <mxGeometry x="-0.15" relative="1" as="geometry">
            <mxPoint x="28" as="offset" />
          </mxGeometry>
        </mxCell>
        <mxCell id="SwoTOEqU8fQwK2jxygsd-22" style="edgeStyle=orthogonalEdgeStyle;rounded=0;orthogonalLoop=1;jettySize=auto;html=1;exitX=0.5;exitY=1;exitDx=0;exitDy=0;entryX=0.5;entryY=0;entryDx=0;entryDy=0;" edge="1" parent="WIyWlLk6GJQsqaUBKTNV-1" source="SwoTOEqU8fQwK2jxygsd-3" target="SwoTOEqU8fQwK2jxygsd-1">
          <mxGeometry relative="1" as="geometry" />
        </mxCell>
        <mxCell id="SwoTOEqU8fQwK2jxygsd-24" value="\(f\)" style="edgeLabel;html=1;align=center;verticalAlign=middle;resizable=0;points=[];" vertex="1" connectable="0" parent="SwoTOEqU8fQwK2jxygsd-22">
          <mxGeometry x="-0.6905" y="-1" relative="1" as="geometry">
            <mxPoint as="offset" />
          </mxGeometry>
        </mxCell>
        <mxCell id="SwoTOEqU8fQwK2jxygsd-27" value="\(f_S\)&lt;div&gt;Piecewise&lt;/div&gt;&lt;div&gt;Linear&lt;/div&gt;" style="edgeLabel;html=1;align=center;verticalAlign=middle;resizable=0;points=[];" vertex="1" connectable="0" parent="SwoTOEqU8fQwK2jxygsd-22">
          <mxGeometry x="0.0714" relative="1" as="geometry">
            <mxPoint y="6" as="offset" />
          </mxGeometry>
        </mxCell>
        <mxCell id="SwoTOEqU8fQwK2jxygsd-3" value="Normalised Height \(h\)" style="rounded=1;whiteSpace=wrap;html=1;fontSize=12;glass=0;strokeWidth=1;shadow=0;" vertex="1" parent="WIyWlLk6GJQsqaUBKTNV-1">
          <mxGeometry x="320" y="210" width="160" height="40" as="geometry" />
        </mxCell>
        <mxCell id="SwoTOEqU8fQwK2jxygsd-9" style="edgeStyle=orthogonalEdgeStyle;rounded=0;orthogonalLoop=1;jettySize=auto;html=1;exitX=0.75;exitY=1;exitDx=0;exitDy=0;entryX=0;entryY=0.25;entryDx=0;entryDy=0;" edge="1" parent="WIyWlLk6GJQsqaUBKTNV-1" source="SwoTOEqU8fQwK2jxygsd-4" target="SwoTOEqU8fQwK2jxygsd-3">
          <mxGeometry relative="1" as="geometry" />
        </mxCell>
        <mxCell id="SwoTOEqU8fQwK2jxygsd-10" value="$$h=\frac{I+3}{10}$$" style="edgeLabel;html=1;align=center;verticalAlign=middle;resizable=0;points=[];" vertex="1" connectable="0" parent="SwoTOEqU8fQwK2jxygsd-9">
          <mxGeometry x="0.3118" y="-1" relative="1" as="geometry">
            <mxPoint x="-3" y="-101" as="offset" />
          </mxGeometry>
        </mxCell>
        <mxCell id="SwoTOEqU8fQwK2jxygsd-4" value="Intensity \(I\)" style="rounded=1;whiteSpace=wrap;html=1;fontSize=12;glass=0;strokeWidth=1;shadow=0;" vertex="1" parent="WIyWlLk6GJQsqaUBKTNV-1">
          <mxGeometry x="120" y="40" width="80" height="40" as="geometry" />
        </mxCell>
        <mxCell id="SwoTOEqU8fQwK2jxygsd-5" value="PGA \(a\)" style="rounded=1;whiteSpace=wrap;html=1;fontSize=12;glass=0;strokeWidth=1;shadow=0;" vertex="1" parent="WIyWlLk6GJQsqaUBKTNV-1">
          <mxGeometry x="280" y="40" width="80" height="40" as="geometry" />
        </mxCell>
        <mxCell id="SwoTOEqU8fQwK2jxygsd-6" value="PGV \(v\)" style="rounded=1;whiteSpace=wrap;html=1;fontSize=12;glass=0;strokeWidth=1;shadow=0;" vertex="1" parent="WIyWlLk6GJQsqaUBKTNV-1">
          <mxGeometry x="440" y="40" width="80" height="40" as="geometry" />
        </mxCell>
        <mxCell id="SwoTOEqU8fQwK2jxygsd-17" style="edgeStyle=orthogonalEdgeStyle;rounded=0;orthogonalLoop=1;jettySize=auto;html=1;exitX=0.25;exitY=1;exitDx=0;exitDy=0;entryX=1;entryY=0.25;entryDx=0;entryDy=0;" edge="1" parent="WIyWlLk6GJQsqaUBKTNV-1" source="SwoTOEqU8fQwK2jxygsd-7" target="SwoTOEqU8fQwK2jxygsd-3">
          <mxGeometry relative="1" as="geometry" />
        </mxCell>
        <mxCell id="SwoTOEqU8fQwK2jxygsd-33" value="$$ h = \frac{\lg x + 4}{5}$$&lt;span style=&quot;caret-color: rgba(0, 0, 0, 0); color: rgba(0, 0, 0, 0); font-family: monospace; font-size: 0px; text-align: start; background-color: rgb(251, 251, 251);&quot;&gt;%\f3CmxGraphModel%3E%3Croot%3E%3CmxCell%20id%3D%220%22%2F%3E%3CmxCell%20id%3D%221%22%20parent%3D%220%22%2F%3E%3CmxCell%20id%3D%222%22%20value%3D%22%24%24a%3D10%5E%7B5h-2%7D%24%24%22%20style%3D%22edgeLabel%3Bhtml%3D1%3Balign%3Dcenter%3BverticalAlign%3Dmiddle%3Bresizable%3D0%3Bpoints%3D%5B%5D%3B%22%20vertex%3D%221%22%20connectable%3D%220%22%20parent%3D%221%22%3E%3CmxGeometry%20x%3D%22220%22%20y%3D%22160.27428800091457%22%20as%3D%22geometry%22%2F%3E%3C%2FmxCell%3E%3C%2Froot%3E%3C%2FmxGraphModel%3E&lt;/span&gt;" style="edgeLabel;html=1;align=center;verticalAlign=middle;resizable=0;points=[];" vertex="1" connectable="0" parent="SwoTOEqU8fQwK2jxygsd-17">
          <mxGeometry x="-0.7122" relative="1" as="geometry">
            <mxPoint x="-50" y="9" as="offset" />
          </mxGeometry>
        </mxCell>
        <mxCell id="SwoTOEqU8fQwK2jxygsd-7" value="PGD \(x\)" style="rounded=1;whiteSpace=wrap;html=1;fontSize=12;glass=0;strokeWidth=1;shadow=0;" vertex="1" parent="WIyWlLk6GJQsqaUBKTNV-1">
          <mxGeometry x="600" y="40" width="80" height="40" as="geometry" />
        </mxCell>
        <mxCell id="SwoTOEqU8fQwK2jxygsd-13" style="edgeStyle=orthogonalEdgeStyle;rounded=0;orthogonalLoop=1;jettySize=auto;html=1;exitX=0.75;exitY=1;exitDx=0;exitDy=0;entryX=0.38;entryY=0.021;entryDx=0;entryDy=0;entryPerimeter=0;" edge="1" parent="WIyWlLk6GJQsqaUBKTNV-1" source="SwoTOEqU8fQwK2jxygsd-5" target="SwoTOEqU8fQwK2jxygsd-3">
          <mxGeometry relative="1" as="geometry">
            <Array as="points">
              <mxPoint x="340" y="100" />
              <mxPoint x="381" y="100" />
            </Array>
          </mxGeometry>
        </mxCell>
        <mxCell id="SwoTOEqU8fQwK2jxygsd-29" value="$$h=\frac{\lg a + 2}{5}$$" style="edgeLabel;html=1;align=center;verticalAlign=middle;resizable=0;points=[];" vertex="1" connectable="0" parent="SwoTOEqU8fQwK2jxygsd-13">
          <mxGeometry x="-0.2061" y="-1" relative="1" as="geometry">
            <mxPoint x="-40" y="23" as="offset" />
          </mxGeometry>
        </mxCell>
        <mxCell id="SwoTOEqU8fQwK2jxygsd-14" style="edgeStyle=orthogonalEdgeStyle;rounded=0;orthogonalLoop=1;jettySize=auto;html=1;exitX=0.25;exitY=1;exitDx=0;exitDy=0;entryX=0.627;entryY=0.079;entryDx=0;entryDy=0;entryPerimeter=0;" edge="1" parent="WIyWlLk6GJQsqaUBKTNV-1" source="SwoTOEqU8fQwK2jxygsd-6" target="SwoTOEqU8fQwK2jxygsd-3">
          <mxGeometry relative="1" as="geometry">
            <Array as="points">
              <mxPoint x="460" y="100" />
              <mxPoint x="420" y="100" />
            </Array>
          </mxGeometry>
        </mxCell>
        <mxCell id="SwoTOEqU8fQwK2jxygsd-30" value="$$h=\frac{\lg v + 3}{5}$$" style="edgeLabel;html=1;align=center;verticalAlign=middle;resizable=0;points=[];" vertex="1" connectable="0" parent="SwoTOEqU8fQwK2jxygsd-14">
          <mxGeometry x="-0.5009" y="1" relative="1" as="geometry">
            <mxPoint x="23" y="29" as="offset" />
          </mxGeometry>
        </mxCell>
      </root>
    </mxGraphModel>
  </diagram>
</mxfile>
